<svg xmlns="http://www.w3.org/2000/svg" width="23" height="22.045" viewBox="0 0 23 22.045"><g transform="translate(-0.5 -0.5)"><path d="M13.909,30.955A.955.955,0,1,1,12.955,30,.955.955,0,0,1,13.909,30.955Z" transform="translate(-3.818 -10.364)" fill="none" stroke="#000" stroke-linecap="round" stroke-linejoin="round" stroke-width="2"/><path d="M30.409,30.955A.955.955,0,1,1,29.455,30,.955.955,0,0,1,30.409,30.955Z" transform="translate(-9.818 -10.364)" fill="none" stroke="#000" stroke-linecap="round" stroke-linejoin="round" stroke-width="2"/><path d="M1.5,1.5H5.318L7.876,14.281a1.909,1.909,0,0,0,1.909,1.537h9.278a1.909,1.909,0,0,0,1.909-1.537L22.5,6.273H6.273" fill="none" stroke="#000" stroke-linecap="round" stroke-linejoin="round" stroke-width="2"/></g></svg>